<svg width="52" height="56" viewBox="0 0 52 56" fill="none" xmlns="http://www.w3.org/2000/svg">
<path d="M26.9716 55.0227C21.5852 55.0227 16.9489 53.9318 13.0625 51.75C9.19886 49.5455 6.22159 46.4318 4.13068 42.4091C2.03977 38.3636 0.994318 33.5795 0.994318 28.0568C0.994318 22.6705 2.03977 17.9432 4.13068 13.875C6.22159 9.80682 9.16477 6.63636 12.9602 4.36363C16.7784 2.09091 21.2557 0.954546 26.392 0.954546C29.8466 0.954546 33.0625 1.51136 36.0398 2.625C39.0398 3.71591 41.6534 5.36364 43.8807 7.56818C46.1307 9.77273 47.8807 12.5455 49.1307 15.8864C50.3807 19.2045 51.0057 23.0909 51.0057 27.5455V31.5341H6.78977V22.5341H37.3352C37.3352 20.4432 36.8807 18.5909 35.9716 16.9773C35.0625 15.3636 33.8011 14.1023 32.1875 13.1932C30.5966 12.2614 28.7443 11.7955 26.6307 11.7955C24.4261 11.7955 22.4716 12.3068 20.767 13.3295C19.0852 14.3295 17.767 15.6818 16.8125 17.3864C15.858 19.0682 15.3693 20.9432 15.3466 23.0114V31.5682C15.3466 34.1591 15.8239 36.3977 16.7784 38.2841C17.7557 40.1705 19.1307 41.625 20.9034 42.6477C22.6761 43.6705 24.7784 44.1818 27.2102 44.1818C28.8239 44.1818 30.3011 43.9545 31.642 43.5C32.983 43.0455 34.1307 42.3636 35.0852 41.4545C36.0398 40.5455 36.767 39.4318 37.267 38.1136L50.6989 39C50.017 42.2273 48.6193 45.0455 46.5057 47.4545C44.4148 49.8409 41.7102 51.7045 38.392 53.0455C35.0966 54.3636 31.2898 55.0227 26.9716 55.0227Z" fill="black"/>
</svg>
